# xmcd
#
# Track frame offsets:
#	150
#	24318
#	44000
#	66435
#	81149
#	102531
#	123503
#	146027
#	162942
#	179337
#	199715
#
# Disc length: 2915 seconds
#
# Revision: 0
# Processed by: cddbd v1.5.1PL2 Copyright (c) Steve Scherf et al.
# Submitted via: dBpowerAMP V4.0
#
DISCID=9f0b610b
DTITLE=Joan Osborne - One Of Us
DYEAR=2005
DGENRE=Blues
TTITLE0=One of Us
TTITLE1=How Sweet It Is
TTITLE2=Why Can't We Live Together
TTITLE3=Everybody Is A Star
TTITLE4=Smiling Faces Sometimes
TTITLE5=These Arms Of Mine
TTITLE6=Right Hand Man
TTITLE7=Only You Know And I Know
TTITLE8=Think
TTITLE9=I'll Be Around
TTITLE10=Loves In Need Of Love Today
EXTD=
EXTT0=
EXTT1=
EXTT2=
EXTT3=
EXTT4=
EXTT5=
EXTT6=
EXTT7=
EXTT8=
EXTT9=
EXTT10=
PLAYORDER=
